<?xml version="1.0" standalone="no"?>
<!DOCTYPE svg PUBLIC "-//W3C//DTD SVG 20010904//EN"
 "http://www.w3.org/TR/2001/REC-SVG-20010904/DTD/svg10.dtd">
<svg version="1.0" xmlns="http://www.w3.org/2000/svg"
 width="590.000000pt" height="589.000000pt" viewBox="0 0 590.000000 589.000000"
 preserveAspectRatio="xMidYMid meet">

<g transform="translate(0.000000,589.000000) scale(0.100000,-0.100000)"
fill="#000000" stroke="none">
<path d="M3665 3829 c-33 -4 -89 -10 -125 -13 -36 -3 -103 -12 -150 -21 -47
-9 -100 -18 -117 -22 -18 -3 -33 -12 -33 -19 0 -10 -14 -14 -46 -14 -72 0
-134 -19 -134 -41 0 -14 -7 -19 -30 -19 -16 0 -45 -9 -65 -20 -20 -11 -42 -20
-50 -20 -8 0 -15 -4 -15 -10 0 -5 -9 -10 -20 -10 -11 0 -20 -4 -20 -10 0 -5
-9 -10 -19 -10 -11 0 -23 -4 -26 -10 -3 -5 -15 -10 -26 -10 -10 0 -19 -4 -19
-10 0 -5 -6 -10 -13 -10 -7 0 -23 -9 -35 -20 -12 -11 -29 -20 -38 -20 -9 0
-18 -9 -21 -20 -3 -13 -14 -20 -28 -20 -13 0 -25 -3 -27 -8 -1 -4 -32 -32 -68
-62 -83 -71 -90 -77 -90 -85 0 -13 -77 -85 -91 -85 -40 0 -176 -231 -252 -426
-84 -215 -99 -301 -86 -486 5 -79 7 -153 4 -166 -3 -13 4 -57 15 -98 20 -72
21 -77 4 -95 -10 -11 -30 -19 -50 -19 -18 0 -35 -4 -38 -9 -10 -16 -168 -24
-227 -12 -30 6 -87 12 -127 12 -55 1 -75 5 -85 17 -16 22 -37 35 -122 77 -174
86 -399 66 -609 -55 -38 -22 -73 -40 -77 -40 -5 0 -9 -4 -9 -10 0 -5 -9 -10
-20 -10 -11 0 -20 -7 -20 -15 0 -8 -4 -15 -9 -15 -12 0 -152 -141 -213 -214
-27 -32 -56 -76 -65 -97 -8 -22 -19 -39 -23 -39 -4 0 -13 -13 -20 -30 -7 -17
-16 -30 -21 -30 -5 0 -9 -9 -9 -20 0 -11 -7 -20 -15 -20 -8 0 -15 -8 -15 -18
0 -11 -8 -28 -18 -40 -10 -12 -27 -39 -37 -62 -10 -22 -22 -40 -27 -40 -4 0
-8 -9 -8 -19 0 -11 -6 -26 -13 -33 -8 -7 -17 -26 -21 -41 -3 -15 -11 -27 -16
-27 -5 0 -12 -21 -16 -47 -3 -27 -12 -59 -19 -73 -7 -14 -16 -56 -19 -95 -9
-89 -14 -105 -32 -105 -8 0 -14 -4 -14 -9 0 -5 8 -7 18 -4 25 6 72 -14 72 -30
0 -25 43 -62 68 -59 12 2 22 -1 22 -7 0 -6 7 -11 15 -11 8 0 15 -9 15 -20 0
-11 5 -20 10 -20 6 0 10 5 10 10 0 6 25 10 55 10 30 0 55 -4 55 -10 0 -5 7
-10 15 -10 8 0 23 -9 32 -20 18 -21 77 -28 88 -10 3 6 19 10 36 10 22 0 29 5
29 20 0 11 -4 20 -10 20 -15 0 -12 36 5 50 8 6 32 14 53 17 40 5 51 -1 82 -46
12 -18 24 -21 85 -21 42 0 76 -5 83 -12 9 -9 12 -9 12 0 0 8 21 12 65 12 37 0
65 -4 65 -10 0 -5 9 -10 20 -10 11 0 20 5 20 10 0 6 15 10 34 10 38 0 46 12
46 65 0 31 4 35 37 44 21 6 46 11 56 11 10 0 26 13 35 30 14 24 24 30 52 30
24 0 40 7 50 20 10 14 26 20 52 20 21 0 38 5 38 10 0 6 7 10 15 10 8 0 15 9
15 20 0 15 7 20 25 20 18 0 25 5 25 20 0 15 7 20 25 20 14 0 25 5 25 10 0 6
11 10 25 10 14 0 25 -4 25 -10 0 -5 11 -10 25 -10 14 0 25 5 25 10 0 6 8 10
18 10 14 0 17 7 14 40 -3 32 -1 40 12 40 9 0 16 5 16 11 0 15 137 6 153 -10 8
-8 8 -19 1 -39 l-10 -27 90 3 c76 2 94 6 108 22 21 25 60 26 75 1 14 -23 83
-34 90 -14 3 9 25 13 63 13 50 0 60 3 65 20 8 25 59 27 101 5 26 -13 30 -13
40 0 13 17 69 20 79 5 8 -13 55 -13 55 1 0 7 34 9 103 6 132 -6 237 -28 237
-48 0 -5 6 -9 13 -9 7 0 24 -10 37 -22 16 -15 34 -21 58 -20 25 2 38 -3 49
-18 8 -11 22 -20 32 -20 11 0 21 -6 24 -14 4 -10 19 -12 55 -8 30 2 52 0 56
-7 4 -6 18 -11 32 -11 13 0 24 -4 24 -10 0 -5 6 -10 14 -10 7 0 16 -9 19 -20
4 -16 14 -20 45 -20 23 0 44 5 47 10 9 14 54 12 69 -3 7 -7 16 -25 20 -40 5
-23 12 -27 40 -27 19 0 36 -6 39 -12 3 -10 9 -10 26 -1 31 19 52 16 80 -11 32
-30 82 -27 74 5 -4 14 0 19 16 19 11 0 21 4 21 10 0 5 10 19 23 32 34 35 67
102 67 136 0 17 3 37 6 46 8 22 63 21 79 -1 11 -15 17 -15 39 -5 14 6 31 24
37 39 6 16 15 35 20 43 9 15 13 24 31 72 14 37 42 68 62 68 9 0 16 5 16 10 0
6 7 10 15 10 8 0 15 5 15 10 0 6 9 10 20 10 11 0 20 5 20 10 0 6 18 10 40 10
l40 0 0 45 c0 30 5 47 14 51 8 3 20 19 26 35 11 25 18 29 51 29 37 0 39 -2 39
-30 0 -24 4 -30 23 -30 38 0 67 12 67 26 0 8 6 14 13 14 7 0 19 9 27 20 8 11
18 20 23 20 17 0 87 82 87 101 0 15 7 19 35 19 19 0 35 -4 35 -10 0 -5 9 -10
20 -10 13 0 20 7 20 20 0 13 7 20 19 20 11 0 22 8 26 19 8 25 40 61 54 61 6 0
11 5 11 10 0 6 5 10 11 10 6 0 17 7 25 15 9 8 26 15 38 15 13 0 37 3 54 6 22
5 35 1 51 -15 12 -12 27 -21 35 -21 8 0 17 -6 20 -12 5 -10 7 -10 12 0 6 13
144 18 144 5 0 -5 47 -8 105 -9 58 0 105 3 105 8 0 4 -40 8 -90 8 -83 0 -90 1
-90 20 0 13 7 20 20 20 11 0 20 5 20 10 0 6 7 10 15 10 8 0 15 5 15 10 0 6 27
10 60 10 33 0 60 -4 60 -10 0 -5 7 -10 15 -10 8 0 15 -4 15 -10 0 -5 7 -10 15
-10 8 0 15 -4 15 -10 0 -5 5 -10 10 -10 15 0 12 16 -5 34 -9 8 -24 42 -34 74
-11 33 -31 83 -46 111 -20 40 -24 60 -19 86 3 19 10 35 15 35 5 0 9 5 9 10 0
6 -13 10 -29 10 -22 0 -31 6 -41 30 -7 17 -16 30 -20 30 -4 0 -13 14 -20 30
-7 17 -16 30 -21 30 -5 0 -14 11 -19 25 -10 26 -19 39 -57 80 -13 13 -23 31
-23 40 0 8 -9 15 -19 15 -15 0 -21 12 -30 63 -6 35 -11 71 -11 80 0 9 -7 17
-15 17 -11 0 -15 12 -15 50 0 49 -37 220 -50 230 -3 3 -12 25 -20 50 -8 25
-23 61 -32 80 -10 19 -18 42 -18 52 0 9 -4 19 -9 23 -5 3 -13 20 -16 38 -4 17
-22 46 -40 62 -46 44 -77 92 -73 117 2 16 -4 23 -23 28 -15 4 -69 50 -122 101
-95 94 -205 178 -283 217 -23 12 -48 27 -55 34 -14 14 -299 128 -318 128 -6 0
-25 6 -43 14 -67 29 -406 59 -513 45z m-34 -231 c21 -45 24 -65 23 -167 0
-106 -3 -124 -32 -202 -84 -222 -298 -459 -509 -563 -142 -71 -340 -105 -493
-87 -265 33 -382 166 -337 386 23 112 72 209 148 290 63 68 189 178 196 171 2
-2 -9 -27 -24 -56 -102 -198 38 -418 287 -449 179 -23 358 47 510 199 132 132
180 240 188 418 2 61 8 112 12 112 3 0 17 -23 31 -52z m315 -274 c-100 -245
-63 -534 88 -688 61 -63 129 -100 234 -127 180 -46 335 -8 452 110 108 110
163 259 164 451 1 63 -2 142 -7 175 l-7 60 51 -55 c100 -108 210 -299 265
-460 25 -74 26 -275 1 -370 -61 -230 -225 -391 -454 -445 -55 -13 -101 -16
-195 -13 -143 5 -233 31 -358 101 -92 52 -216 173 -249 242 -69 145 -109 313
-118 490 -7 149 5 257 44 380 22 73 99 222 109 212 2 -2 -7 -30 -20 -63z"/>
</g>
</svg>
